<?xml version="1.0" encoding="UTF-8" standalone="no"?>
<!DOCTYPE svg PUBLIC "-//W3C//DTD SVG 1.1//EN" "http://www.w3.org/Graphics/SVG/1.1/DTD/svg11.dtd">
<svg width="100%" height="100%" viewBox="0 0 3665 800" version="1.1" xmlns="http://www.w3.org/2000/svg" xmlns:xlink="http://www.w3.org/1999/xlink" xml:space="preserve" xmlns:serif="http://www.serif.com/" style="fill-rule:evenodd;clip-rule:evenodd;stroke-linejoin:round;stroke-miterlimit:2;">
    <g transform="matrix(1,0,0,1,-6449,-964)">
        <g id="Imagotipo_r_flat" transform="matrix(1,0,0,1,366.754427,-0.287121)">
            <rect x="6082.907" y="964.287" width="3664" height="800" style="fill:none;"/>
            <clipPath id="_clip1">
                <rect x="6082.907" y="964.287" width="3664" height="800"/>
            </clipPath>
            <g clip-path="url(#_clip1)">
                <g transform="matrix(1.058042,0,0,1,3576.503551,114.574241)">
                    <g transform="matrix(0.945152,0,0,1,848.157375,850)">
                        <g transform="matrix(0.544596,0,0,0.544596,1472.269045,-14.934628)">
                            <path d="M350.176,1245.194C183.192,1009.4 255.283,717.342 361.301,588.707C402.463,538.759 439.191,502.696 452.22,490.283L461.472,481.365C507.372,443.248 646.572,330.715 646.572,330.715C646.572,330.715 680.543,299.302 689.118,289.069C710.16,263.948 728.706,220.286 728.706,220.286C738.118,195.419 764.822,126.311 724.493,27.423C726.91,28.407 884.701,94.948 925.231,285.511C925.643,287.244 929.439,320.507 929.439,335.598C929.439,359.461 926.856,382.719 921.96,405.177C899.168,509.423 844.785,534.573 725.181,636.094C725.181,636.094 682.485,670.273 650.66,692.298C633.306,704.311 621.139,715.111 620.443,715.836C483.456,856.923 521.143,996.232 568.047,1081.398C568.36,1081.967 567.761,1081.803 566.387,1080.89C566.948,1081.408 567.243,1081.665 567.243,1081.665C583.964,1108.861 602.535,1126.536 620.618,1141.761C815.293,1305.817 1000.959,1163.434 1045.073,1093.932C1074.872,1039.345 1092.615,987.953 1095.951,944.311C1100.914,833.298 1166.551,783.348 1240.501,783.348C1308.843,783.348 1369.61,829.777 1381.693,894.082C1384.551,909.294 1384.964,924.432 1385.518,939.086C1392.497,1122.532 1293.531,1247.861 1293.531,1247.861C941.643,1677.694 492.606,1464.648 350.176,1245.194Z"/>
                        </g>
                        <g transform="matrix(5.721314,0,0,5.721314,1497.908886,-42.795425)">
                            <g transform="matrix(1,0,0,1,149.5735,38.7533)">
                                <path d="M0,88.78L0,36.601L60.965,36.601L55.191,49.708L18.129,49.708L18.129,88.78L0,88.78ZM68.753,0L62.711,13.726L0,13.726L0,0L68.753,0Z" style="fill-rule:nonzero;"/>
                            </g>
                            <g transform="matrix(1,0,0,1,304.5395,52.726)">
                                <path d="M0,61.083L0,75.055L-72.915,75.055L-72.915,-13.972L-54.788,-13.972L-54.788,61.083L0,61.083Z" style="fill-rule:nonzero;"/>
                            </g>
                            <g transform="matrix(1,0,0,1,363.2274,127.2875)">
                                <path d="M0,-88.782L0.403,-88.782L46.059,0L27.527,0L0.403,-51.316L0,-51.316L-27.126,0L-45.656,0L0,-88.782Z" style="fill-rule:nonzero;"/>
                            </g>
                            <g transform="matrix(1,0,0,1,578.6323,127.2875)">
                                <path d="M0,-88.782L0.404,-88.782L46.059,0L27.529,0L0.404,-51.316L0,-51.316L-27.125,0L-45.656,0L0,-88.782Z" style="fill-rule:nonzero;"/>
                            </g>
                            <g transform="matrix(1,0,0,1,417.4847,127.4106)">
                                <path d="M0,-89.028L53.446,-43.648L53.714,-43.648L107.158,-89.028L107.158,0L89.462,0L89.462,-52.608L53.714,-21.515C53.714,-21.267 53.446,-20.773 53.446,-21.02L17.624,-52.438L17.532,0L0,0L0,-89.028Z" style="fill-rule:nonzero;"/>
                            </g>
                        </g>
                    </g>
                    <g transform="matrix(2.177122,0,0,2.303487,-19815.967075,-1547.043022)">
                        <g transform="matrix(4.166667,0,0,4.166667,11757.810798,1131.1575)">
                            <path d="M-4.416,5.844L-4.416,8.4L-5.616,8.4L-5.616,0L-2.34,0C-1.252,0 -0.396,0.258 0.228,0.774C0.852,1.29 1.164,2.008 1.164,2.928C1.164,3.536 1.024,4.058 0.744,4.494C0.464,4.93 0.063,5.264 -0.456,5.496C-0.53,5.529 -0.606,5.56 -0.685,5.588L1.308,8.4L0,8.4L-1.807,5.822C-1.978,5.837 -2.155,5.844 -2.34,5.844L-4.416,5.844ZM-4.416,4.824L-2.376,4.824C-1.608,4.824 -1.026,4.658 -0.63,4.326C-0.234,3.994 -0.036,3.528 -0.036,2.928C-0.036,2.328 -0.234,1.864 -0.63,1.536C-1.026,1.208 -1.608,1.044 -2.376,1.044L-4.416,1.044L-4.416,4.824Z"/>
                        </g>
                        <g transform="matrix(0,-4.166667,-4.166667,0,11747.155798,1120.494583)">
                            <path d="M-7.284,-8.034C-11.718,-8.034 -15.318,-4.434 -15.318,0C-15.318,4.434 -11.718,8.034 -7.284,8.034C-2.85,8.034 0.75,4.434 0.75,0C0.75,-4.434 -2.85,-8.034 -7.284,-8.034ZM-7.284,-6.534C-3.678,-6.534 -0.75,-3.606 -0.75,0C-0.75,3.606 -3.678,6.534 -7.284,6.534C-10.89,6.534 -13.818,3.606 -13.818,0C-13.818,-3.606 -10.89,-6.534 -7.284,-6.534Z"/>
                        </g>
                    </g>
                </g>
            </g>
        </g>
    </g>
</svg>
